<svg xmlns="http://www.w3.org/2000/svg" xmlns:xlink="http://www.w3.org/1999/xlink" width="500" zoomAndPan="magnify" viewBox="0 0 375 374.999991" height="500" preserveAspectRatio="xMidYMid meet" version="1.0"><defs><g/><clipPath id="d7bac52194"><rect x="0" width="293" y="0" height="180"/></clipPath><clipPath id="da5b241081"><path d="M 62.179688 183.53125 L 82.746094 183.53125 L 82.746094 204.097656 L 62.179688 204.097656 Z M 62.179688 183.53125 " clip-rule="nonzero"/></clipPath><clipPath id="edae7ce24f"><path d="M 72.464844 183.53125 C 66.785156 183.53125 62.179688 188.136719 62.179688 193.816406 C 62.179688 199.496094 66.785156 204.097656 72.464844 204.097656 C 78.144531 204.097656 82.746094 199.496094 82.746094 193.816406 C 82.746094 188.136719 78.144531 183.53125 72.464844 183.53125 Z M 72.464844 183.53125 " clip-rule="nonzero"/></clipPath><clipPath id="25b7e433aa"><path d="M 0.179688 0.53125 L 20.746094 0.53125 L 20.746094 21.097656 L 0.179688 21.097656 Z M 0.179688 0.53125 " clip-rule="nonzero"/></clipPath><clipPath id="9075b12044"><path d="M 10.464844 0.53125 C 4.785156 0.53125 0.179688 5.136719 0.179688 10.816406 C 0.179688 16.496094 4.785156 21.097656 10.464844 21.097656 C 16.144531 21.097656 20.746094 16.496094 20.746094 10.816406 C 20.746094 5.136719 16.144531 0.53125 10.464844 0.53125 Z M 10.464844 0.53125 " clip-rule="nonzero"/></clipPath><clipPath id="24901801d1"><rect x="0" width="21" y="0" height="22"/></clipPath></defs><g transform="matrix(1, 0, 0, 1, 30, 85)"><g clip-path="url(#d7bac52194)"><g fill="#1e1e1e" fill-opacity="1"><g transform="translate(0.646097, 140.858332)"><g><path d="M 41.6875 1.765625 C 34.90625 1.765625 28.835938 0.21875 23.484375 -2.875 C 18.128906 -5.976562 13.941406 -10.207031 10.921875 -15.5625 C 7.910156 -20.925781 6.40625 -26.875 6.40625 -33.40625 C 6.40625 -40.019531 7.929688 -45.984375 10.984375 -51.296875 C 14.046875 -56.609375 18.296875 -60.789062 23.734375 -63.84375 C 29.171875 -66.90625 35.238281 -68.4375 41.9375 -68.4375 C 48.300781 -68.4375 54.097656 -67.160156 59.328125 -64.609375 C 64.566406 -62.054688 68.773438 -58.519531 71.953125 -54 L 65.671875 -48.59375 C 62.492188 -52.445312 58.957031 -55.335938 55.0625 -57.265625 C 51.175781 -59.191406 46.675781 -60.15625 41.5625 -60.15625 C 36.539062 -60.15625 32.039062 -58.984375 28.0625 -56.640625 C 24.09375 -54.296875 20.953125 -51.09375 18.640625 -47.03125 C 16.335938 -42.96875 15.1875 -38.425781 15.1875 -33.40625 C 15.1875 -28.21875 16.316406 -23.570312 18.578125 -19.46875 C 20.835938 -15.363281 24 -12.179688 28.0625 -9.921875 C 32.125 -7.660156 36.664062 -6.53125 41.6875 -6.53125 C 51.40625 -6.53125 59.398438 -10.296875 65.671875 -17.828125 L 72.078125 -12.8125 C 68.484375 -8.207031 64.109375 -4.625 58.953125 -2.0625 C 53.804688 0.488281 48.050781 1.765625 41.6875 1.765625 Z M 41.6875 1.765625 "/></g></g></g><g fill="#1e1e1e" fill-opacity="1"><g transform="translate(67.958372, 140.858332)"><g><path d="M 41.1875 1.625 C 33.988281 1.625 27.769531 0.0546875 22.53125 -3.078125 C 17.300781 -6.210938 13.304688 -10.4375 10.546875 -15.75 C 7.785156 -21.070312 6.40625 -26.875 6.40625 -33.15625 C 6.40625 -39.257812 7.828125 -45.007812 10.671875 -50.40625 C 13.515625 -55.8125 17.550781 -60.164062 22.78125 -63.46875 C 28.019531 -66.78125 33.988281 -68.4375 40.6875 -68.4375 C 47.132812 -68.4375 52.992188 -66.929688 58.265625 -63.921875 C 63.546875 -60.910156 67.691406 -56.722656 70.703125 -51.359375 C 73.710938 -46.003906 75.21875 -39.976562 75.21875 -33.28125 L 75.21875 -32.65625 L 15.1875 -32.65625 C 15.363281 -27.539062 16.5625 -23.015625 18.78125 -19.078125 C 21 -15.148438 24.03125 -12.097656 27.875 -9.921875 C 31.726562 -7.742188 36.164062 -6.65625 41.1875 -6.65625 C 47.132812 -6.65625 51.988281 -8.035156 55.75 -10.796875 C 59.519531 -13.554688 62.867188 -17.328125 65.796875 -22.109375 L 72.953125 -18.328125 C 69.691406 -12.054688 65.359375 -7.160156 59.953125 -3.640625 C 54.554688 -0.128906 48.300781 1.625 41.1875 1.625 Z M 65.796875 -40.1875 C 64.128906 -46.800781 61.054688 -51.78125 56.578125 -55.125 C 52.097656 -58.476562 46.84375 -60.15625 40.8125 -60.15625 C 34.695312 -60.15625 29.523438 -58.5 25.296875 -55.1875 C 21.078125 -51.882812 18.003906 -46.882812 16.078125 -40.1875 Z M 65.796875 -40.1875 "/></g></g></g><g fill="#1e1e1e" fill-opacity="1"><g transform="translate(139.289289, 140.858332)"><g><path d="M 40.5625 1.625 C 34.195312 1.625 28.421875 0.0351562 23.234375 -3.140625 C 18.046875 -6.316406 13.941406 -10.601562 10.921875 -16 C 7.910156 -21.40625 6.40625 -27.25 6.40625 -33.53125 C 6.40625 -39.8125 7.929688 -45.609375 10.984375 -50.921875 C 14.046875 -56.234375 18.210938 -60.476562 23.484375 -63.65625 C 28.753906 -66.84375 34.53125 -68.4375 40.8125 -68.4375 C 46.25 -68.4375 51.226562 -67.265625 55.75 -64.921875 C 60.269531 -62.578125 64.164062 -59.101562 67.4375 -54.5 L 67.4375 -92.421875 L 75.96875 -92.421875 L 75.96875 0 L 67.4375 0 L 67.4375 -11.421875 C 63.832031 -7.066406 59.769531 -3.800781 55.25 -1.625 C 50.726562 0.539062 45.832031 1.625 40.5625 1.625 Z M 41.4375 -6.15625 C 46.039062 -6.15625 50.375 -7.265625 54.4375 -9.484375 C 58.5 -11.703125 61.765625 -14.835938 64.234375 -18.890625 C 66.703125 -22.953125 67.9375 -27.664062 67.9375 -33.03125 C 67.9375 -38.132812 66.785156 -42.738281 64.484375 -46.84375 C 62.179688 -50.945312 59.019531 -54.191406 55 -56.578125 C 50.976562 -58.960938 46.5 -60.15625 41.5625 -60.15625 C 36.625 -60.15625 32.125 -58.921875 28.0625 -56.453125 C 24 -53.984375 20.835938 -50.695312 18.578125 -46.59375 C 16.316406 -42.488281 15.1875 -38.050781 15.1875 -33.28125 C 15.1875 -28.507812 16.335938 -24.050781 18.640625 -19.90625 C 20.953125 -15.757812 24.113281 -12.429688 28.125 -9.921875 C 32.144531 -7.410156 36.582031 -6.15625 41.4375 -6.15625 Z M 41.4375 -6.15625 "/></g></g></g><g fill="#1e1e1e" fill-opacity="1"><g transform="translate(215.015601, 140.858332)"><g><path d="M 40.5625 1.625 C 34.195312 1.625 28.421875 0.0351562 23.234375 -3.140625 C 18.046875 -6.316406 13.941406 -10.601562 10.921875 -16 C 7.910156 -21.40625 6.40625 -27.25 6.40625 -33.53125 C 6.40625 -39.8125 7.929688 -45.609375 10.984375 -50.921875 C 14.046875 -56.234375 18.210938 -60.476562 23.484375 -63.65625 C 28.753906 -66.84375 34.53125 -68.4375 40.8125 -68.4375 C 46.25 -68.4375 51.226562 -67.265625 55.75 -64.921875 C 60.269531 -62.578125 64.164062 -59.101562 67.4375 -54.5 L 67.4375 -92.421875 L 75.96875 -92.421875 L 75.96875 0 L 67.4375 0 L 67.4375 -11.421875 C 63.832031 -7.066406 59.769531 -3.800781 55.25 -1.625 C 50.726562 0.539062 45.832031 1.625 40.5625 1.625 Z M 41.4375 -6.15625 C 46.039062 -6.15625 50.375 -7.265625 54.4375 -9.484375 C 58.5 -11.703125 61.765625 -14.835938 64.234375 -18.890625 C 66.703125 -22.953125 67.9375 -27.664062 67.9375 -33.03125 C 67.9375 -38.132812 66.785156 -42.738281 64.484375 -46.84375 C 62.179688 -50.945312 59.019531 -54.191406 55 -56.578125 C 50.976562 -58.960938 46.5 -60.15625 41.5625 -60.15625 C 36.625 -60.15625 32.125 -58.921875 28.0625 -56.453125 C 24 -53.984375 20.835938 -50.695312 18.578125 -46.59375 C 16.316406 -42.488281 15.1875 -38.050781 15.1875 -33.28125 C 15.1875 -28.507812 16.335938 -24.050781 18.640625 -19.90625 C 20.953125 -15.757812 24.113281 -12.429688 28.125 -9.921875 C 32.144531 -7.410156 36.582031 -6.15625 41.4375 -6.15625 Z M 41.4375 -6.15625 "/></g></g></g></g></g><g fill="#1e1e1e" fill-opacity="1"><g transform="translate(326.245442, 163.728109)"><g><path d="M 16.515625 21 L 0 16.28125 L 0 15.96875 L 11.15625 11.609375 L 12.65625 11.046875 C 11.851562 10.722656 11.351562 10.519531 11.15625 10.4375 L 0 6.09375 L 0 5.796875 L 16.515625 1.078125 L 16.515625 2.78125 L 6.375 5.640625 L 4.375 6.1875 L 6.328125 6.953125 L 16.515625 10.875 L 16.515625 11.21875 L 6.25 15.203125 L 4.375 15.9375 C 5.195312 16.1875 5.816406 16.363281 6.234375 16.46875 L 16.515625 19.3125 Z M 16.515625 21 "/></g></g></g><g fill="#1e1e1e" fill-opacity="1"><g transform="translate(326.245442, 185.80067)"><g><path d="M 16.515625 2 L 16.515625 11.4375 L 14.921875 11.4375 L 14.921875 3.65625 L 9.703125 3.65625 L 9.703125 11.4375 L 8.140625 11.4375 L 8.140625 3.65625 L 1.609375 3.65625 L 1.609375 11.4375 L 0 11.4375 L 0 2 Z M 16.515625 2 "/></g></g></g><g fill="#1e1e1e" fill-opacity="1"><g transform="translate(326.245442, 198.101523)"><g><path d="M 16.515625 5.5 C 16.515625 6.613281 16.34375 7.550781 16 8.3125 C 15.65625 9.070312 15.179688 9.632812 14.578125 10 C 13.984375 10.375 13.285156 10.5625 12.484375 10.5625 C 11.753906 10.5625 11.085938 10.382812 10.484375 10.03125 C 9.890625 9.675781 9.398438 9.144531 9.015625 8.4375 C 8.234375 10.75 6.804688 11.90625 4.734375 11.90625 C 3.890625 11.90625 3.109375 11.695312 2.390625 11.28125 C 1.671875 10.863281 1.09375 10.25 0.65625 9.4375 C 0.21875 8.625 0 7.65625 0 6.53125 L 0 2 L 16.515625 2 Z M 9.59375 4.765625 C 9.59375 6.046875 9.828125 7.039062 10.296875 7.75 C 10.765625 8.46875 11.492188 8.828125 12.484375 8.828125 C 13.222656 8.828125 13.8125 8.5625 14.25 8.03125 C 14.6875 7.507812 14.90625 6.769531 14.90625 5.8125 L 14.90625 3.65625 L 9.59375 3.65625 Z M 1.609375 6.203125 C 1.609375 7.097656 1.75 7.84375 2.03125 8.4375 C 2.320312 9.039062 2.703125 9.484375 3.171875 9.765625 C 3.648438 10.046875 4.164062 10.1875 4.71875 10.1875 C 5.40625 10.1875 5.992188 10 6.484375 9.625 C 6.972656 9.25 7.34375 8.703125 7.59375 7.984375 C 7.851562 7.265625 7.984375 6.394531 7.984375 5.375 L 7.984375 3.65625 L 1.609375 3.65625 Z M 1.609375 6.203125 "/></g></g></g><g clip-path="url(#da5b241081)"><g clip-path="url(#edae7ce24f)"><g transform="matrix(1, 0, 0, 1, 62, 183)"><g clip-path="url(#24901801d1)"><g clip-path="url(#25b7e433aa)"><g clip-path="url(#9075b12044)"><path fill="#cf2121" d="M 0.179688 0.53125 L 20.746094 0.53125 L 20.746094 21.097656 L 0.179688 21.097656 Z M 0.179688 0.53125 " fill-opacity="1" fill-rule="nonzero"/></g></g></g></g></g></g></svg>